<?xml version="1.0" ?><!DOCTYPE svg  PUBLIC '-//W3C//DTD SVG 1.1//EN'  'http://www.w3.org/Graphics/SVG/1.1/DTD/svg11.dtd'><svg height="512px" style="enable-background:new 0 0 512 512;" version="1.1" viewBox="0 0 512 512" width="512px" xml:space="preserve" xmlns="http://www.w3.org/2000/svg" xmlns:xlink="http://www.w3.org/1999/xlink"><g id="_x32_11_x2C__doller__x2C__server__x2C__money__x2C__computing"><g id="XMLID_12450_"><path d="M135.845,270.342c0.02,0.174,0.042,0.352,0.072,0.527l0.05,0.254c0.041,0.201,0.079,0.369,0.122,0.536    c0.025,0.099,0.05,0.196,0.079,0.293c0.053,0.183,0.11,0.353,0.169,0.523l0.1,0.289c0.082,0.217,0.172,0.429,0.267,0.642    l0.091,0.214c0.11,0.237,0.252,0.516,0.405,0.793l0.121,0.204c0.125,0.218,0.252,0.433,0.389,0.646l0.199,0.298    c0.133,0.198,0.265,0.391,0.404,0.581l0.237,0.317c0.151,0.198,0.308,0.395,0.468,0.59l0.259,0.313    c0.187,0.219,0.383,0.437,0.584,0.655l0.221,0.244c0.284,0.301,0.58,0.603,0.889,0.9c0.02,0.019,0.04,0.037,0.06,0.056    c0.305,0.292,0.622,0.583,0.949,0.872l0.324,0.278c0.242,0.208,0.5,0.427,0.766,0.643l0.339,0.271    c0.311,0.246,0.579,0.454,0.854,0.66l0.411,0.308c0.304,0.223,0.613,0.443,0.928,0.663l0.37,0.259    c0.426,0.292,0.873,0.589,1.333,0.884c0.021,0.014,0.048,0.032,0.075,0.05c0.508,0.322,0.979,0.612,1.458,0.898l0.299,0.175    c0.407,0.241,0.825,0.483,1.252,0.723l0.441,0.243c0.422,0.233,0.817,0.447,1.221,0.661l0.514,0.269    c0.412,0.214,0.836,0.429,1.267,0.643l0.474,0.235c0.516,0.252,1.041,0.502,1.574,0.75l0.231,0.108    c1.242,0.574,2.568,1.152,3.948,1.722l0.457,0.186c0.528,0.215,1.061,0.428,1.602,0.639l0.554,0.214    c0.547,0.211,1.083,0.413,1.625,0.613l0.551,0.203c0.611,0.222,1.218,0.438,1.832,0.651l0.385,0.136    c1.508,0.521,3.103,1.043,4.743,1.551l0.324,0.098c0.687,0.213,1.382,0.422,2.086,0.628l0.596,0.174    c0.628,0.181,1.272,0.363,1.922,0.544l0.627,0.174c0.688,0.188,1.368,0.369,2.054,0.551l0.529,0.139    c0.855,0.222,1.722,0.441,2.599,0.657c21.556,5.292,47.278,8.089,74.386,8.089c27.109,0,52.831-2.797,74.384-8.089    c0.879-0.216,1.746-0.436,2.604-0.658l0.541-0.142c0.672-0.178,1.351-0.358,2.023-0.543l0.629-0.174    c0.663-0.185,1.307-0.367,1.946-0.552l0.567-0.165c0.722-0.211,1.417-0.42,2.104-0.633l0.329-0.1    c1.635-0.506,3.229-1.027,4.734-1.547l0.367-0.131c0.638-0.221,1.244-0.437,1.843-0.655l0.565-0.207    c0.538-0.199,1.074-0.401,1.604-0.605l0.559-0.216c0.552-0.215,1.086-0.429,1.613-0.644l0.476-0.192    c1.363-0.563,2.688-1.141,3.923-1.711l0.251-0.118c0.521-0.242,1.045-0.492,1.562-0.744l0.473-0.234    c0.428-0.214,0.855-0.429,1.272-0.646l0.499-0.262c0.414-0.218,0.81-0.432,1.2-0.647l0.47-0.261    c0.431-0.241,0.85-0.483,1.262-0.727l0.291-0.171c0.499-0.298,0.986-0.599,1.462-0.9c0.001-0.001,0.003-0.002,0.004-0.003    c0.531-0.342,0.977-0.638,1.412-0.937l0.355-0.249c0.317-0.221,0.626-0.44,0.926-0.661l0.405-0.303    c0.289-0.217,0.556-0.425,0.819-0.633l0.396-0.317c0.259-0.211,0.516-0.429,0.771-0.648l0.312-0.268    c0.322-0.284,0.638-0.572,0.941-0.863c0.019-0.02,0.046-0.045,0.073-0.07c0.307-0.296,0.6-0.594,0.883-0.894l0.208-0.229    c0.211-0.23,0.407-0.448,0.595-0.669l0.207-0.248c0.216-0.263,0.368-0.454,0.515-0.647l0.238-0.319    c0.142-0.193,0.273-0.384,0.4-0.575l0.216-0.321c0.125-0.195,0.254-0.414,0.381-0.634l0.119-0.203    c0.148-0.267,0.286-0.535,0.411-0.805l0.074-0.174c0.11-0.25,0.201-0.461,0.281-0.673l0.055-0.16    c0.001-0.005,0.033-0.097,0.034-0.1c0.067-0.196,0.126-0.374,0.18-0.554l0.079-0.291c0.04-0.158,0.078-0.329,0.113-0.499    l0.055-0.281c0.032-0.183,0.053-0.353,0.072-0.521l0.023-0.199c0.031-0.321,0.045-0.577,0.045-0.834v-47.457    c-6.733,5.946-17.048,11.247-30.742,15.723c-0.107,0.035-0.222,0.068-0.329,0.103c-0.729,0.236-1.463,0.472-2.203,0.701    l-0.345,0.104c-0.376,0.116-0.765,0.23-1.146,0.345c-0.327,0.099-0.651,0.197-0.98,0.295c-0.025,0.007-0.049,0.015-0.074,0.021    l-0.578,0.168c-0.709,0.205-1.386,0.397-2.068,0.587l-0.664,0.184c-0.118,0.032-0.238,0.063-0.357,0.096    c-0.493,0.135-0.99,0.268-1.489,0.399c-0.099,0.026-0.195,0.053-0.294,0.079l-0.559,0.146c-0.894,0.232-1.799,0.462-2.714,0.687    c-0.006,0.001-0.01,0.002-0.016,0.004c-1.036,0.255-2.093,0.498-3.148,0.741c-0.469,0.108-0.934,0.219-1.407,0.324    c-1.04,0.234-2.093,0.459-3.152,0.683c-0.518,0.108-1.036,0.217-1.559,0.323c-1.04,0.212-2.084,0.42-3.141,0.621    c-0.578,0.11-1.162,0.217-1.744,0.324c-1.026,0.189-2.052,0.378-3.093,0.558c-0.725,0.125-1.46,0.241-2.19,0.361    c-1.438,0.236-2.886,0.465-4.35,0.683c-1.103,0.165-2.205,0.328-3.32,0.482c-0.691,0.096-1.391,0.184-2.086,0.274    c-1.126,0.148-2.255,0.292-3.392,0.429c-0.659,0.079-1.319,0.156-1.982,0.231c-1.245,0.142-2.497,0.277-3.755,0.406    c-0.563,0.058-1.125,0.116-1.691,0.172c-1.576,0.154-3.162,0.298-4.757,0.432c-0.26,0.021-0.517,0.046-0.775,0.067    c-1.937,0.158-3.885,0.302-5.846,0.43c-0.202,0.013-0.407,0.023-0.609,0.036c-1.689,0.107-3.388,0.203-5.095,0.289    c-0.543,0.027-1.088,0.05-1.633,0.075c-1.391,0.063-2.787,0.12-4.188,0.169c-0.626,0.021-1.25,0.042-1.877,0.062    c-1.391,0.041-2.785,0.073-4.184,0.101c-0.581,0.011-1.16,0.025-1.743,0.034c-1.952,0.028-3.911,0.047-5.877,0.047    c-1.967,0-3.925-0.019-5.877-0.047c-0.583-0.009-1.162-0.023-1.744-0.034c-1.398-0.027-2.793-0.06-4.184-0.101    c-0.627-0.02-1.251-0.04-1.875-0.062c-1.402-0.049-2.798-0.105-4.189-0.169c-0.544-0.025-1.089-0.048-1.631-0.075    c-1.713-0.086-3.417-0.182-5.114-0.29c-0.195-0.013-0.392-0.022-0.586-0.035c-1.964-0.128-3.916-0.271-5.854-0.43    c-0.252-0.021-0.502-0.045-0.754-0.066c-1.603-0.134-3.196-0.278-4.78-0.433c-0.561-0.055-1.117-0.113-1.674-0.171    c-1.266-0.13-2.526-0.266-3.779-0.408c-0.655-0.075-1.308-0.15-1.958-0.229c-1.149-0.138-2.291-0.284-3.429-0.434    c-0.684-0.089-1.371-0.177-2.05-0.27c-1.142-0.157-2.271-0.325-3.399-0.494c-1.41-0.21-2.805-0.431-4.192-0.658    c-0.763-0.125-1.531-0.247-2.288-0.377c-1.026-0.177-2.038-0.364-3.051-0.551c-0.598-0.109-1.198-0.219-1.792-0.332    c-1.043-0.199-2.077-0.405-3.104-0.614c-0.536-0.109-1.069-0.221-1.6-0.333c-1.048-0.221-2.091-0.443-3.121-0.675    c-0.486-0.108-0.964-0.223-1.447-0.334c-1.043-0.241-2.088-0.48-3.112-0.732c-0.007-0.002-0.014-0.003-0.02-0.005    c-0.918-0.226-1.823-0.455-2.72-0.688l-0.561-0.147c-0.094-0.024-0.187-0.05-0.28-0.074c-0.5-0.133-0.998-0.266-1.492-0.4    c-0.119-0.032-0.24-0.063-0.36-0.096l-0.666-0.185c-0.686-0.19-1.362-0.383-2.034-0.577l-0.613-0.178    c-0.03-0.009-0.059-0.018-0.089-0.026c-0.322-0.095-0.639-0.192-0.959-0.288c-0.388-0.116-0.779-0.231-1.162-0.35l-0.334-0.102    c-0.741-0.229-1.474-0.464-2.203-0.701c-0.109-0.035-0.225-0.067-0.333-0.104c-13.695-4.476-24.008-9.776-30.743-15.723v47.457    c0,0.259,0.015,0.517,0.037,0.772L135.845,270.342z M288.618,264.388h18.64v18.639h-18.64V264.388z M260.66,264.388h18.639v18.639    H260.66V264.388z M232.701,264.388h18.639v18.639h-18.639V264.388z M204.742,264.388h18.639v18.639h-18.639V264.388z" id="XMLID_12451_"/><path d="M135.845,73.533c0.02,0.176,0.042,0.353,0.072,0.529l0.048,0.242c0.004,0.02,0.008,0.035,0.012,0.054    c0.037,0.179,0.072,0.337,0.112,0.49c0.027,0.106,0.052,0.2,0.08,0.295c0.053,0.184,0.11,0.355,0.17,0.527l0.097,0.281    c0.083,0.22,0.174,0.433,0.268,0.644l0.054,0.128l0.037,0.086c0.112,0.242,0.253,0.519,0.405,0.794l0.122,0.206    c0.125,0.218,0.252,0.433,0.388,0.646l0.2,0.299c0.131,0.194,0.264,0.388,0.404,0.58l0.242,0.324    c0.144,0.188,0.3,0.385,0.461,0.58l0.262,0.316c0.187,0.219,0.383,0.438,0.584,0.655l0.221,0.245    c0.28,0.296,0.573,0.594,0.879,0.891c0.034,0.031,0.071,0.066,0.095,0.09c0.28,0.268,0.598,0.559,0.926,0.85l0.314,0.269    c0.251,0.217,0.51,0.436,0.776,0.652l0.385,0.308c0.263,0.208,0.532,0.417,0.808,0.624l0.416,0.311    c0.296,0.218,0.605,0.438,0.92,0.657l0.362,0.254c0.438,0.3,0.881,0.594,1.338,0.888c0.024,0.015,0.056,0.035,0.083,0.054    c0.515,0.326,0.98,0.613,1.456,0.897l0.283,0.165c0.422,0.25,0.841,0.492,1.27,0.732l0.468,0.259    c0.391,0.216,0.787,0.43,1.19,0.644l0.519,0.271c0.407,0.211,0.832,0.426,1.262,0.64l0.474,0.235    c0.046,0.022,0.093,0.044,0.139,0.066c0.472,0.229,0.947,0.457,1.432,0.683l0.234,0.11c1.252,0.578,2.578,1.156,3.947,1.721    l0.458,0.186c0.529,0.216,1.063,0.429,1.604,0.641l0.561,0.217c0.537,0.206,1.074,0.409,1.618,0.609l0.558,0.205    c0.602,0.22,1.209,0.436,1.823,0.649l0.385,0.135c0.759,0.263,1.537,0.524,2.329,0.783c0.792,0.259,1.599,0.516,2.414,0.768    l0.309,0.094c0.157,0.049,0.314,0.094,0.47,0.142c0.544,0.166,1.087,0.331,1.634,0.491l0.593,0.172    c0.628,0.182,1.272,0.365,1.922,0.545l0.636,0.177c0.676,0.185,1.356,0.366,2.042,0.547l0.521,0.137    c0.868,0.226,1.732,0.445,2.608,0.659c21.556,5.293,47.278,8.09,74.388,8.09c27.104,0,52.821-2.796,74.373-8.086    c0.005-0.001,0.01-0.002,0.016-0.004c0.875-0.214,1.74-0.434,2.597-0.656l0.533-0.14c0.686-0.181,1.364-0.362,2.038-0.547    l0.634-0.175c0.654-0.182,1.298-0.365,1.938-0.55l0.576-0.168c0.713-0.208,1.409-0.418,2.098-0.63    c0.01-0.003,0.09-0.026,0.099-0.029l0.229-0.069c1.625-0.504,3.22-1.025,4.734-1.548l0.381-0.135    c0.624-0.217,1.23-0.433,1.829-0.65l0.564-0.208c0.538-0.198,1.076-0.401,1.607-0.605l0.564-0.219    c0.542-0.211,1.077-0.425,1.605-0.641l0.464-0.188c1.363-0.562,2.689-1.14,3.936-1.715l0.231-0.109    c0.541-0.251,1.063-0.5,1.577-0.751l0.485-0.241c0.418-0.208,0.845-0.424,1.263-0.641l0.499-0.262    c0.414-0.218,0.81-0.432,1.2-0.647l0.462-0.255c0.437-0.245,0.855-0.488,1.27-0.732l0.291-0.17    c0.497-0.298,0.985-0.599,1.461-0.901c0.026-0.018,0.053-0.035,0.078-0.051c0.458-0.293,0.9-0.588,1.334-0.885l0.36-0.253    c0.073-0.052,0.142-0.102,0.214-0.152c0.24-0.169,0.48-0.339,0.711-0.508l0.313-0.233l0.103-0.077    c0.276-0.209,0.545-0.417,0.81-0.625l0.396-0.318c0.257-0.208,0.515-0.428,0.771-0.647l0.318-0.273    c0.313-0.277,0.63-0.567,0.934-0.858c0.022-0.021,0.055-0.051,0.084-0.079c0.313-0.304,0.599-0.595,0.875-0.887l0.213-0.235    c0.204-0.222,0.4-0.44,0.588-0.661l0.255-0.308c0.176-0.214,0.327-0.402,0.47-0.591l0.236-0.317    c0.142-0.193,0.274-0.385,0.402-0.577l0.213-0.318c0.125-0.195,0.254-0.415,0.381-0.634l0.119-0.204    c0.149-0.268,0.286-0.536,0.412-0.806l0.029-0.068l0.039-0.095c0.116-0.26,0.206-0.471,0.286-0.683l0.091-0.264    c0.065-0.189,0.124-0.368,0.178-0.549l0.082-0.306c0.038-0.146,0.075-0.313,0.109-0.483l0.01-0.047l0.046-0.235    c0.032-0.183,0.053-0.352,0.072-0.521l0.023-0.2c0.031-0.321,0.045-0.577,0.045-0.833c0-17.243-49.756-36.456-121.154-36.456    c-71.398,0-121.155,19.213-121.155,36.456c0,0.258,0.015,0.515,0.037,0.771L135.845,73.533z" id="XMLID_12457_"/><path d="M135.845,139.319c0.02,0.175,0.042,0.352,0.072,0.528l0.049,0.247c0.042,0.208,0.08,0.374,0.123,0.54    c0.027,0.103,0.052,0.199,0.08,0.295c0.053,0.182,0.11,0.354,0.169,0.524l0.098,0.284c0.083,0.219,0.173,0.431,0.268,0.644    l0.09,0.212c0.113,0.243,0.255,0.52,0.407,0.797l0.116,0.195c0.131,0.229,0.258,0.442,0.394,0.655l0.204,0.304    c0.127,0.189,0.26,0.382,0.4,0.574l0.241,0.323c0.147,0.192,0.304,0.389,0.464,0.585l0.259,0.313    c0.186,0.217,0.384,0.438,0.587,0.658l0.218,0.24c0.279,0.296,0.569,0.592,0.872,0.885c0.021,0.019,0.043,0.04,0.055,0.051    c0.328,0.314,0.645,0.604,0.971,0.893l0.316,0.271c0.251,0.217,0.51,0.435,0.776,0.652l0.392,0.313    c0.256,0.203,0.528,0.412,0.804,0.622l0.412,0.308c0.296,0.217,0.605,0.438,0.92,0.656l0.362,0.254    c0.436,0.298,0.88,0.594,1.338,0.888c0.522,0.334,1.025,0.644,1.539,0.951l0.297,0.173c0.407,0.241,0.829,0.484,1.259,0.727    l0.474,0.263c0.379,0.209,0.777,0.424,1.182,0.638l0.514,0.27c0.411,0.213,0.834,0.427,1.264,0.64l0.477,0.237    c0.517,0.253,1.04,0.502,1.571,0.749l0.159,0.075c1.318,0.609,2.645,1.188,4.023,1.756l0.456,0.186    c0.53,0.216,1.064,0.43,1.606,0.641l0.241,0.093c0.204,0.079,0.411,0.157,0.616,0.235c0.394,0.15,0.788,0.3,1.185,0.446    c0.358,0.133,0.721,0.266,1.086,0.396c0.314,0.113,0.631,0.227,0.95,0.338c0.4,0.142,0.801,0.282,1.208,0.422    c0.354,0.121,0.716,0.241,1.077,0.361c0.364,0.122,0.725,0.245,1.094,0.365c0.682,0.222,1.372,0.441,2.066,0.656    c0.361,0.113,0.731,0.223,1.097,0.334c0.441,0.134,0.881,0.268,1.329,0.399c0.322,0.095,0.647,0.188,0.973,0.283    c0.533,0.153,1.073,0.307,1.621,0.459c0.235,0.065,0.471,0.131,0.708,0.196l0.002,0.001c0.676,0.185,1.356,0.367,2.041,0.547    l0.532,0.14c0.857,0.223,1.722,0.442,2.599,0.657c17.462,4.287,37.661,6.937,59.117,7.788c0.149,0.006,0.298,0.011,0.447,0.017    c3.072,0.119,6.17,0.199,9.289,0.243c0.328,0.004,0.656,0.009,0.985,0.012c1.512,0.019,3.027,0.03,4.549,0.03    c1.521,0,3.037-0.012,4.548-0.03c0.328-0.003,0.657-0.008,0.984-0.012c3.117-0.044,6.211-0.124,9.281-0.243    c0.154-0.005,0.308-0.011,0.461-0.017c21.453-0.853,41.649-3.501,59.109-7.788c0.878-0.215,1.743-0.435,2.601-0.657l0.544-0.143    c0.675-0.177,1.354-0.358,2.027-0.544l0.3-0.082c0.132-0.037,0.264-0.073,0.396-0.11c0.559-0.155,1.109-0.312,1.658-0.471    c0.321-0.093,0.644-0.186,0.962-0.279c0.47-0.138,0.936-0.279,1.399-0.421c0.346-0.104,0.697-0.209,1.038-0.315    c0.548-0.17,1.091-0.345,1.631-0.519c0.52-0.168,1.029-0.337,1.537-0.506c0.349-0.117,0.698-0.233,1.042-0.351    c0.384-0.131,0.762-0.265,1.14-0.397c0.353-0.124,0.702-0.248,1.047-0.372c0.358-0.13,0.717-0.26,1.069-0.391    c0.392-0.145,0.781-0.292,1.17-0.441c0.224-0.085,0.448-0.169,0.67-0.255l0.194-0.075c0.542-0.212,1.077-0.426,1.605-0.642    l0.464-0.188c1.373-0.566,2.699-1.145,3.936-1.716l0.25-0.117c0.521-0.243,1.044-0.492,1.559-0.743l0.476-0.237    c0.431-0.214,0.855-0.428,1.272-0.644l0.499-0.262c0.415-0.219,0.812-0.435,1.203-0.65l0.467-0.258    c0.427-0.24,0.85-0.484,1.265-0.729l0.288-0.168c0.497-0.298,0.985-0.599,1.461-0.901c0.026-0.018,0.052-0.034,0.078-0.051    c0.459-0.293,0.902-0.59,1.337-0.887l0.357-0.251c0.317-0.221,0.626-0.44,0.926-0.66l0.423-0.316    c0.268-0.201,0.536-0.409,0.802-0.619l0.389-0.313c0.265-0.214,0.522-0.434,0.778-0.653l0.312-0.268    c0.321-0.283,0.636-0.572,0.938-0.862c0.024-0.023,0.06-0.057,0.092-0.087c0.301-0.291,0.589-0.584,0.867-0.879l0.223-0.246    c0.195-0.212,0.394-0.433,0.583-0.655l0.26-0.313c0.16-0.194,0.313-0.386,0.459-0.579l0.244-0.325    c0.137-0.188,0.27-0.38,0.397-0.572l0.213-0.318c0.124-0.194,0.253-0.413,0.379-0.631l0.121-0.205    c0.148-0.268,0.286-0.536,0.412-0.807l0.068-0.163c0.116-0.261,0.206-0.472,0.286-0.683l0.055-0.161    c0.002-0.004,0.033-0.095,0.034-0.099c0.067-0.195,0.126-0.374,0.18-0.554l0.083-0.309c0.037-0.142,0.074-0.311,0.108-0.479    l0.056-0.282c0.032-0.184,0.053-0.353,0.072-0.521l0.023-0.2c0.008-0.089,0.013-0.165,0.02-0.245    c0.013-0.196,0.025-0.393,0.025-0.588V90.237c-0.01,0.01-0.02,0.019-0.029,0.027l-0.394,0.339    c-0.327,0.282-0.651,0.556-0.986,0.828l-0.484,0.388c-0.32,0.254-0.65,0.51-0.989,0.765l-0.493,0.368    c-0.364,0.268-0.738,0.533-1.117,0.798l-0.428,0.299c-0.503,0.345-1.013,0.684-1.538,1.021c-0.05,0.032-0.099,0.064-0.141,0.09    c-0.002,0.001-0.004,0.003-0.006,0.004c-0.001,0.001-0.002,0.002-0.004,0.003c-0.16,0.103-0.343,0.215-0.52,0.325    c-0.366,0.229-0.749,0.465-1.148,0.704l-0.339,0.198c-0.466,0.275-0.946,0.553-1.436,0.828l-0.526,0.291    c-0.438,0.242-0.885,0.483-1.339,0.724l-0.57,0.299c-0.469,0.242-0.939,0.48-1.416,0.717l-0.541,0.269    c-0.561,0.274-1.138,0.55-1.725,0.822l-0.261,0.123c-1.365,0.631-2.811,1.261-4.299,1.874l-0.501,0.203    c-0.565,0.23-1.143,0.461-1.728,0.689l-0.591,0.229c-0.587,0.226-1.163,0.443-1.746,0.658l-0.6,0.221    c-0.64,0.232-1.286,0.463-1.943,0.691l-0.414,0.146c-0.906,0.313-1.844,0.624-2.794,0.933c-0.734,0.239-1.477,0.477-2.229,0.71    l-0.267,0.081l-0.019,0.005c-0.783,0.24-1.52,0.462-2.264,0.681l-0.609,0.177c-0.679,0.196-1.354,0.389-2.037,0.578l-0.671,0.186    c-0.7,0.191-1.412,0.382-2.129,0.57l-0.572,0.15c-0.879,0.229-1.781,0.457-2.695,0.682c-0.005,0.001-0.01,0.002-0.015,0.003    c-17.492,4.295-37.596,6.991-58.908,7.953c-5.818,0.263-11.723,0.404-17.695,0.404c-8.702,0-17.272-0.282-25.622-0.838    c-18.37-1.22-35.675-3.761-50.986-7.52c-0.917-0.226-1.823-0.455-2.721-0.688l-0.558-0.147c-0.715-0.188-1.427-0.378-2.132-0.571    l-0.675-0.187c-0.673-0.187-1.351-0.379-2.021-0.573l-0.625-0.182c-0.339-0.1-0.677-0.203-1.016-0.306    c-0.395-0.118-0.792-0.234-1.184-0.355l-0.335-0.102c-0.866-0.268-1.721-0.54-2.562-0.815c-0.84-0.274-1.666-0.552-2.469-0.83    l-0.416-0.146c-0.652-0.228-1.301-0.458-1.94-0.69l-0.595-0.22c-0.584-0.215-1.161-0.433-1.73-0.651l-0.612-0.237    c-0.581-0.227-1.158-0.457-1.729-0.689l-0.5-0.203c-1.484-0.612-2.93-1.241-4.292-1.871l-0.196-0.092    c-0.654-0.305-1.231-0.58-1.799-0.857l-0.527-0.262c-0.481-0.239-0.952-0.478-1.416-0.718l-0.57-0.298    c-0.46-0.244-0.906-0.485-1.346-0.728l-0.533-0.295c-0.483-0.272-0.964-0.55-1.438-0.83l-0.337-0.197    c-0.588-0.351-1.17-0.711-1.736-1.072c-0.017-0.012-0.041-0.026-0.064-0.042c-0.025-0.016-0.047-0.031-0.072-0.048    c-0.458-0.291-0.971-0.633-1.474-0.978l-0.435-0.304c-0.374-0.261-0.746-0.525-1.107-0.791l-0.507-0.379    c-0.332-0.25-0.662-0.506-0.985-0.763l-0.475-0.379c-0.344-0.28-0.669-0.556-0.989-0.831l-0.389-0.335    c-0.004-0.003-0.008-0.007-0.012-0.011c-0.008-0.007-0.017-0.015-0.025-0.022V138.3c0,0.258,0.015,0.515,0.037,0.771    L135.845,139.319z" id="XMLID_12458_"/><path d="M135.845,205.104c0.02,0.176,0.042,0.354,0.072,0.531l0.049,0.25c0.042,0.204,0.079,0.37,0.122,0.535    c0.027,0.104,0.052,0.199,0.08,0.295c0.053,0.181,0.11,0.353,0.169,0.524l0.096,0.279c0.085,0.225,0.176,0.438,0.271,0.651    l0.091,0.213c0.111,0.238,0.252,0.515,0.404,0.79l0.118,0.198c0.131,0.229,0.257,0.442,0.393,0.655l0.204,0.304    c0.126,0.188,0.258,0.38,0.397,0.571l0.244,0.327c0.147,0.192,0.303,0.388,0.464,0.584l0.259,0.313    c0.185,0.217,0.384,0.438,0.586,0.658l0.219,0.241c0.279,0.296,0.57,0.591,0.874,0.885c0.02,0.019,0.042,0.039,0.053,0.05    c0.328,0.315,0.645,0.604,0.971,0.893l0.308,0.265c0.259,0.224,0.518,0.442,0.784,0.659l0.392,0.313    c0.256,0.203,0.526,0.412,0.801,0.62l0.408,0.305c0.305,0.224,0.616,0.444,0.932,0.665l0.358,0.251    c0.438,0.299,0.881,0.595,1.338,0.888c0.03,0.019,0.081,0.053,0.11,0.072c0.412,0.262,0.915,0.571,1.428,0.879l0.297,0.173    c0.407,0.241,0.829,0.485,1.259,0.727l0.465,0.257c0.39,0.215,0.785,0.43,1.187,0.642l0.51,0.268    c0.418,0.216,0.842,0.431,1.271,0.644l0.485,0.241c0.51,0.25,1.033,0.499,1.565,0.747l0.25,0.117    c1.235,0.57,2.562,1.148,3.928,1.712l0.457,0.186c0.532,0.216,1.066,0.43,1.609,0.642l0.136,0.053    c0.256,0.1,0.517,0.198,0.776,0.297c0.356,0.136,0.714,0.271,1.078,0.406c0.398,0.147,0.801,0.294,1.206,0.439    c0.267,0.097,0.536,0.192,0.807,0.288c0.435,0.153,0.872,0.307,1.315,0.458c0.294,0.101,0.595,0.2,0.894,0.3    c1.002,0.337,2.021,0.668,3.064,0.994c0.071,0.022,0.142,0.046,0.212,0.068c0.413,0.128,0.834,0.254,1.253,0.381    c0.382,0.115,0.762,0.23,1.149,0.345c0.351,0.104,0.705,0.206,1.06,0.309c0.504,0.145,1.01,0.289,1.521,0.431    c0.269,0.075,0.539,0.15,0.81,0.226c0.66,0.18,1.331,0.359,2.009,0.537l0.534,0.141c0.855,0.223,1.722,0.442,2.599,0.657    c17.461,4.287,37.658,6.936,59.111,7.787c0.153,0.007,0.308,0.013,0.461,0.018c3.069,0.118,6.165,0.198,9.281,0.243    c0.328,0.004,0.656,0.008,0.984,0.012c1.512,0.018,3.027,0.029,4.549,0.029c1.521,0,3.037-0.012,4.548-0.029    c0.328-0.004,0.656-0.008,0.984-0.012c3.117-0.045,6.216-0.125,9.287-0.243c0.149-0.006,0.3-0.011,0.448-0.018    c21.454-0.851,41.652-3.499,59.113-7.785c0.004-0.001,0.008-0.002,0.012-0.003c0.874-0.215,1.738-0.435,2.595-0.656l0.53-0.14    c0.684-0.18,1.357-0.36,2.026-0.543c0.274-0.075,0.547-0.151,0.818-0.228c0.506-0.142,1.011-0.285,1.515-0.43    c0.348-0.101,0.696-0.2,1.039-0.302c0.412-0.122,0.82-0.246,1.229-0.369c0.39-0.118,0.782-0.236,1.167-0.355    c0.189-0.059,0.377-0.12,0.566-0.18c0.928-0.293,1.84-0.59,2.736-0.891c0.291-0.097,0.583-0.193,0.869-0.292    c0.429-0.146,0.851-0.294,1.271-0.443c0.3-0.104,0.598-0.211,0.894-0.317c0.395-0.142,0.787-0.285,1.175-0.429    c0.337-0.125,0.673-0.253,1.009-0.381c0.294-0.111,0.59-0.223,0.88-0.335l0.099-0.039c0.539-0.21,1.075-0.425,1.604-0.641    l0.464-0.188c1.361-0.561,2.688-1.138,3.938-1.715l0.248-0.117c0.521-0.242,1.043-0.491,1.558-0.743l0.477-0.236    c0.431-0.214,0.855-0.429,1.272-0.646l0.513-0.269c0.402-0.212,0.797-0.426,1.187-0.641l0.47-0.26    c0.428-0.24,0.85-0.484,1.265-0.729l0.288-0.168c0.499-0.299,0.988-0.6,1.466-0.904c0.026-0.017,0.053-0.034,0.073-0.048    c0.458-0.293,0.9-0.588,1.334-0.885l0.36-0.253c0.315-0.219,0.625-0.439,0.926-0.66l0.405-0.303    c0.286-0.217,0.555-0.424,0.819-0.633l0.389-0.313c0.265-0.214,0.522-0.434,0.778-0.653l0.319-0.274    c0.313-0.276,0.628-0.565,0.931-0.855c0.023-0.023,0.059-0.056,0.091-0.085c0.302-0.292,0.589-0.585,0.868-0.881l0.223-0.245    c0.195-0.213,0.394-0.434,0.583-0.655l0.26-0.313c0.16-0.194,0.313-0.387,0.459-0.58l0.239-0.32    c0.144-0.195,0.275-0.386,0.402-0.576l0.217-0.325c0.12-0.188,0.249-0.406,0.375-0.625l0.118-0.201    c0.152-0.272,0.289-0.54,0.414-0.809l0.074-0.174c0.11-0.25,0.201-0.462,0.281-0.675l0.056-0.162    c0.001-0.005,0.032-0.093,0.033-0.097c0.068-0.196,0.127-0.376,0.181-0.556l0.082-0.307c0.036-0.142,0.074-0.31,0.108-0.479    l0.056-0.283c0.032-0.183,0.053-0.352,0.072-0.521l0.024-0.201c0.008-0.084,0.012-0.154,0.018-0.23    c0.014-0.201,0.026-0.401,0.026-0.603v-48.005c-6.733,5.945-17.048,11.247-30.742,15.723c-0.106,0.034-0.219,0.067-0.326,0.102    c-0.729,0.236-1.463,0.473-2.205,0.702l-0.346,0.104c-0.376,0.115-0.765,0.229-1.146,0.345c-0.327,0.098-0.65,0.197-0.979,0.294    c-0.026,0.008-0.052,0.016-0.078,0.023l-0.608,0.177c-0.679,0.196-1.354,0.388-2.035,0.577l-0.673,0.187    c-0.117,0.032-0.239,0.063-0.358,0.096c-0.487,0.133-0.979,0.264-1.472,0.395c-0.101,0.026-0.198,0.054-0.299,0.08l-0.562,0.147    c-0.892,0.231-1.798,0.461-2.714,0.687c-0.002,0-0.003,0-0.005,0.001c-1.051,0.259-2.125,0.505-3.197,0.753    c-0.452,0.104-0.9,0.211-1.356,0.313c-1.049,0.234-2.109,0.462-3.176,0.687c-0.512,0.107-1.023,0.215-1.54,0.319    c-1.043,0.213-2.092,0.422-3.152,0.624c-0.574,0.109-1.155,0.216-1.734,0.322c-1.028,0.189-2.057,0.379-3.1,0.559    c-0.729,0.126-1.471,0.243-2.206,0.364c-1.422,0.233-2.854,0.46-4.299,0.675c-1.114,0.167-2.229,0.332-3.356,0.488    c-0.688,0.095-1.385,0.183-2.078,0.273c-1.129,0.148-2.261,0.293-3.401,0.43c-0.655,0.079-1.313,0.154-1.972,0.229    c-1.249,0.143-2.504,0.278-3.766,0.407c-0.563,0.059-1.122,0.117-1.687,0.173c-1.576,0.153-3.162,0.297-4.758,0.431    c-0.26,0.021-0.517,0.046-0.775,0.067c-1.937,0.158-3.887,0.302-5.849,0.43c-0.197,0.013-0.396,0.022-0.595,0.035    c-1.694,0.108-3.397,0.205-5.108,0.29c-0.542,0.027-1.088,0.051-1.633,0.075c-1.389,0.063-2.783,0.12-4.184,0.169    c-0.626,0.021-1.252,0.042-1.88,0.062c-1.39,0.041-2.784,0.073-4.183,0.101c-0.582,0.012-1.16,0.025-1.743,0.034    c-1.952,0.028-3.911,0.047-5.877,0.047c-1.967,0-3.925-0.019-5.877-0.047c-0.583-0.009-1.162-0.022-1.743-0.034    c-1.399-0.027-2.794-0.06-4.185-0.101c-0.626-0.02-1.25-0.04-1.874-0.062c-1.403-0.049-2.8-0.105-4.193-0.169    c-0.543-0.024-1.087-0.048-1.628-0.075c-1.715-0.085-3.422-0.183-5.121-0.29c-0.192-0.013-0.387-0.022-0.579-0.034    c-1.964-0.129-3.915-0.272-5.854-0.431c-0.256-0.021-0.509-0.045-0.765-0.066c-1.599-0.135-3.189-0.278-4.77-0.433    c-0.562-0.055-1.118-0.113-1.677-0.171c-1.266-0.13-2.526-0.266-3.78-0.409c-0.654-0.074-1.306-0.149-1.956-0.228    c-1.149-0.138-2.291-0.284-3.428-0.434c-0.684-0.089-1.372-0.176-2.051-0.27c-1.149-0.159-2.286-0.327-3.422-0.497    c-1.392-0.208-2.77-0.426-4.139-0.65c-0.774-0.127-1.553-0.25-2.32-0.382c-1.03-0.178-2.044-0.365-3.06-0.552    c-0.593-0.109-1.187-0.218-1.775-0.33c-1.05-0.2-2.089-0.407-3.124-0.618c-0.528-0.107-1.052-0.217-1.577-0.327    c-1.054-0.222-2.104-0.447-3.141-0.68c-0.476-0.106-0.944-0.218-1.417-0.326c-1.053-0.244-2.107-0.485-3.141-0.74    c-0.004-0.001-0.009-0.002-0.015-0.003c-0.918-0.227-1.824-0.456-2.722-0.688l-0.547-0.145c-0.1-0.026-0.196-0.053-0.295-0.079    c-0.501-0.132-1-0.266-1.496-0.4c-0.116-0.031-0.236-0.063-0.352-0.095l-0.675-0.187c-0.676-0.188-1.352-0.379-2.021-0.573    l-0.616-0.179c-0.029-0.009-0.057-0.018-0.085-0.025c-0.325-0.096-0.645-0.193-0.967-0.291c-0.386-0.115-0.776-0.23-1.158-0.348    l-0.334-0.102c-0.74-0.229-1.471-0.464-2.197-0.699c-0.111-0.036-0.228-0.069-0.339-0.105    c-13.695-4.476-24.008-9.777-30.743-15.723v48.005c0,0.259,0.015,0.516,0.037,0.772L135.845,205.104z M288.618,199.15h18.64v18.64    h-18.64V199.15z M260.66,199.15h18.639v18.64H260.66V199.15z M232.701,199.15h18.639v18.64h-18.639V199.15z M204.742,199.15    h18.639v18.64h-18.639V199.15z" id="XMLID_12459_"/><path d="M437.731,446.119H283.959c-0.057,0-0.097,0.007-0.148,0.008c-1.241-12.047-10.428-21.77-22.219-23.828    v-46.076c0-0.721-0.164-2.498-0.455-4.686c69.138-0.735,116.949-19.527,116.949-36.43v-47.458    c-6.733,5.945-17.048,11.247-30.742,15.723c-24.218,7.915-56.327,12.273-90.412,12.273c-34.085,0-66.194-4.358-90.412-12.273    c-13.695-4.475-24.008-9.776-30.743-15.722v47.457c0,16.902,47.813,35.694,116.95,36.43c-0.292,2.188-0.456,3.965-0.456,4.686    v46.076c-11.789,2.059-20.979,11.775-22.222,23.82H74.268c-2.573,0-4.66,2.086-4.66,4.66c0,2.573,2.086,4.659,4.66,4.659h156.438    c2.927,11.761,13.573,20.503,26.226,20.503c12.693,0,23.365-8.799,26.252-20.616c0.178,0.072,0.426,0.113,0.774,0.113h153.772    c2.574,0,4.66-2.086,4.66-4.659C442.392,448.205,440.306,446.119,437.731,446.119z M283.774,452.025    c0.067-0.582,0.12-1.167,0.149-1.759c0.021,0.168,0.035,0.34,0.035,0.513C283.959,451.211,283.883,451.627,283.774,452.025z" id="XMLID_12465_"/></g></g><g id="Layer_1"/></svg>